<?xml version="1.0" encoding="UTF-8"?><svg xmlns="http://www.w3.org/2000/svg" xmlns:xlink="http://www.w3.org/1999/xlink" fill-opacity="1" color-rendering="auto" color-interpolation="auto" text-rendering="auto" stroke="black" stroke-linecap="square" width="92" stroke-miterlimit="10" shape-rendering="auto" stroke-opacity="1" fill="black" stroke-dasharray="none" font-weight="normal" stroke-width="1" height="162" font-family="'Dialog'" font-style="normal" stroke-linejoin="miter" font-size="12px" stroke-dashoffset="0" image-rendering="auto">
  <!--Generated by ySVG 2.5-->
  <defs id="genericDefs"/>
  <g>
    <defs id="defs1">
      <clipPath clipPathUnits="userSpaceOnUse" id="clipPath1">
        <path d="M0 0 L92 0 L92 162 L0 162 L0 0 Z"/>
      </clipPath>
      <clipPath clipPathUnits="userSpaceOnUse" id="clipPath2">
        <path d="M-31 -66 L61 -66 L61 96 L-31 96 L-31 -66 Z"/>
      </clipPath>
    </defs>
    <g fill="red" text-rendering="geometricPrecision" shape-rendering="geometricPrecision" transform="matrix(1,0,0,1,31,66)" stroke="red">
      <rect x="-30" y="-65" clip-path="url(#clipPath2)" width="90" rx="4" ry="4" height="160" stroke="none"/>
    </g>
    <g text-rendering="geometricPrecision" stroke-miterlimit="1.45" shape-rendering="geometricPrecision" transform="matrix(1,0,0,1,31,66)" stroke-linecap="butt">
      <rect x="-30" y="-65" clip-path="url(#clipPath2)" fill="none" width="90" rx="4" ry="4" height="160"/>
      <text x="-26.6738" xml:space="preserve" y="-50.2861" clip-path="url(#clipPath2)" font-family="sans-serif" stroke="none">10</text>
    </g>
    <g fill="rgb(221,0,0)" text-rendering="geometricPrecision" shape-rendering="geometricPrecision" transform="matrix(1,0,0,1,31,66)" stroke="rgb(221,0,0)">
      <ellipse rx="45" ry="80" clip-path="url(#clipPath2)" cx="15" cy="15" stroke="none"/>
    </g>
    <g text-rendering="geometricPrecision" stroke-miterlimit="1.45" shape-rendering="geometricPrecision" transform="matrix(1,0,0,1,31,66)" stroke-linecap="butt">
      <ellipse rx="45" fill="none" ry="80" clip-path="url(#clipPath2)" cx="15" cy="15"/>
      <text x="-18.3691" font-size="60px" y="38.5693" clip-path="url(#clipPath2)" font-family="sans-serif" stroke="none" xml:space="preserve">10</text>
    </g>
    <g text-rendering="geometricPrecision" stroke-miterlimit="1.45" shape-rendering="geometricPrecision" font-family="sans-serif" transform="matrix(1,0,0,1,31,66)" stroke-linecap="butt">
      <text x="43.3262" xml:space="preserve" y="89.7139" clip-path="url(#clipPath2)" stroke="none">10</text>
    </g>
  </g>
</svg>
