<?xml version="1.0" encoding="UTF-8"?><svg xmlns="http://www.w3.org/2000/svg" xmlns:xlink="http://www.w3.org/1999/xlink" fill-opacity="1" color-rendering="auto" color-interpolation="auto" text-rendering="auto" stroke="black" stroke-linecap="square" width="92" stroke-miterlimit="10" shape-rendering="auto" stroke-opacity="1" fill="black" stroke-dasharray="none" font-weight="normal" stroke-width="1" height="162" font-family="'Dialog'" font-style="normal" stroke-linejoin="miter" font-size="12px" stroke-dashoffset="0" image-rendering="auto">
  <!--Generated by ySVG 2.5-->
  <defs id="genericDefs"/>
  <g>
    <defs id="defs1">
      <clipPath clipPathUnits="userSpaceOnUse" id="clipPath1">
        <path d="M0 0 L92 0 L92 162 L0 162 L0 0 Z"/>
      </clipPath>
      <clipPath clipPathUnits="userSpaceOnUse" id="clipPath2">
        <path d="M-31 -66 L61 -66 L61 96 L-31 96 L-31 -66 Z"/>
      </clipPath>
    </defs>
    <g fill="rgb(102,102,102)" text-rendering="geometricPrecision" shape-rendering="geometricPrecision" transform="matrix(1,0,0,1,31,66)" stroke="rgb(102,102,102)">
      <rect x="-30" y="-65" clip-path="url(#clipPath2)" width="90" rx="4" ry="4" height="160" stroke="none"/>
    </g>
    <g text-rendering="geometricPrecision" stroke-miterlimit="1.45" shape-rendering="geometricPrecision" transform="matrix(1,0,0,1,31,66)" stroke-linecap="butt">
      <rect x="-30" y="-65" clip-path="url(#clipPath2)" fill="none" width="90" rx="4" ry="4" height="160"/>
    </g>
    <g fill="rgb(204,204,204)" text-rendering="geometricPrecision" shape-rendering="geometricPrecision" transform="matrix(1,0,0,1,31,66)" stroke="rgb(204,204,204)">
      <rect x="-25" y="-60" clip-path="url(#clipPath2)" width="80" rx="4" ry="4" height="150" stroke="none"/>
    </g>
    <g text-rendering="geometricPrecision" stroke-miterlimit="1.45" shape-rendering="geometricPrecision" transform="matrix(1,0,0,1,31,66)" stroke-linecap="butt">
      <rect x="-25" y="-60" clip-path="url(#clipPath2)" fill="none" width="80" rx="4" ry="4" height="150"/>
    </g>
    <g fill="rgb(204,153,255)" text-rendering="geometricPrecision" shape-rendering="geometricPrecision" transform="matrix(1,0,0,1,31,66)" stroke="rgb(204,153,255)">
      <rect x="35" y="-60" clip-path="url(#clipPath2)" width="20" rx="4" ry="4" height="20" stroke="none"/>
    </g>
    <g text-rendering="geometricPrecision" stroke-miterlimit="1.45" shape-rendering="geometricPrecision" transform="matrix(1,0,0,1,31,66)" stroke-linecap="butt">
      <rect x="35" y="-60" clip-path="url(#clipPath2)" fill="none" width="20" rx="4" ry="4" height="20"/>
    </g>
    <g fill="rgb(204,153,255)" text-rendering="geometricPrecision" shape-rendering="geometricPrecision" transform="matrix(1,0,0,1,31,66)" stroke="rgb(204,153,255)">
      <rect x="-25" y="70" clip-path="url(#clipPath2)" width="20" rx="4" ry="4" height="20" stroke="none"/>
    </g>
    <g text-rendering="geometricPrecision" stroke-miterlimit="1.45" shape-rendering="geometricPrecision" transform="matrix(1,0,0,1,31,66)" stroke-linecap="butt">
      <rect x="-25" y="70" clip-path="url(#clipPath2)" fill="none" width="20" rx="4" ry="4" height="20"/>
    </g>
    <g fill="rgb(204,153,255)" text-rendering="geometricPrecision" shape-rendering="geometricPrecision" transform="matrix(1,0,0,1,31,66)" stroke="rgb(204,153,255)">
      <rect x="-25" y="-60" clip-path="url(#clipPath2)" width="20" rx="4" ry="4" height="20" stroke="none"/>
    </g>
    <g text-rendering="geometricPrecision" stroke-miterlimit="1.45" shape-rendering="geometricPrecision" transform="matrix(1,0,0,1,31,66)" stroke-linecap="butt">
      <rect x="-25" y="-60" clip-path="url(#clipPath2)" fill="none" width="20" rx="4" ry="4" height="20"/>
    </g>
    <g fill="rgb(204,153,255)" text-rendering="geometricPrecision" shape-rendering="geometricPrecision" transform="matrix(1,0,0,1,31,66)" stroke="rgb(204,153,255)">
      <rect x="35" y="70" clip-path="url(#clipPath2)" width="20" rx="4" ry="4" height="20" stroke="none"/>
    </g>
    <g text-rendering="geometricPrecision" stroke-miterlimit="1.45" shape-rendering="geometricPrecision" transform="matrix(1,0,0,1,31,66)" stroke-linecap="butt">
      <rect x="35" y="70" clip-path="url(#clipPath2)" fill="none" width="20" rx="4" ry="4" height="20"/>
    </g>
    <g fill="rgb(204,153,255)" text-rendering="geometricPrecision" shape-rendering="geometricPrecision" transform="matrix(1,0,0,1,31,66)" stroke="rgb(204,153,255)">
      <rect x="5" y="70" clip-path="url(#clipPath2)" width="20" rx="4" ry="4" height="20" stroke="none"/>
    </g>
    <g text-rendering="geometricPrecision" stroke-miterlimit="1.45" shape-rendering="geometricPrecision" transform="matrix(1,0,0,1,31,66)" stroke-linecap="butt">
      <rect x="5" y="70" clip-path="url(#clipPath2)" fill="none" width="20" rx="4" ry="4" height="20"/>
    </g>
    <g fill="rgb(204,153,255)" text-rendering="geometricPrecision" shape-rendering="geometricPrecision" transform="matrix(1,0,0,1,31,66)" stroke="rgb(204,153,255)">
      <rect x="5" y="-60" clip-path="url(#clipPath2)" width="20" rx="4" ry="4" height="20" stroke="none"/>
    </g>
    <g text-rendering="geometricPrecision" stroke-miterlimit="1.45" shape-rendering="geometricPrecision" transform="matrix(1,0,0,1,31,66)" stroke-linecap="butt">
      <rect x="5" y="-60" clip-path="url(#clipPath2)" fill="none" width="20" rx="4" ry="4" height="20"/>
    </g>
    <g fill="rgb(204,153,255)" text-rendering="geometricPrecision" shape-rendering="geometricPrecision" transform="matrix(1,0,0,1,31,66)" stroke="rgb(204,153,255)">
      <rect x="-25" y="40" clip-path="url(#clipPath2)" width="20" rx="4" ry="4" height="20" stroke="none"/>
    </g>
    <g text-rendering="geometricPrecision" stroke-miterlimit="1.45" shape-rendering="geometricPrecision" transform="matrix(1,0,0,1,31,66)" stroke-linecap="butt">
      <rect x="-25" y="40" clip-path="url(#clipPath2)" fill="none" width="20" rx="4" ry="4" height="20"/>
    </g>
    <g fill="rgb(204,153,255)" text-rendering="geometricPrecision" shape-rendering="geometricPrecision" transform="matrix(1,0,0,1,31,66)" stroke="rgb(204,153,255)">
      <rect x="-25" y="10" clip-path="url(#clipPath2)" width="20" rx="4" ry="4" height="20" stroke="none"/>
    </g>
    <g text-rendering="geometricPrecision" stroke-miterlimit="1.45" shape-rendering="geometricPrecision" transform="matrix(1,0,0,1,31,66)" stroke-linecap="butt">
      <rect x="-25" y="10" clip-path="url(#clipPath2)" fill="none" width="20" rx="4" ry="4" height="20"/>
    </g>
    <g fill="rgb(204,153,255)" text-rendering="geometricPrecision" shape-rendering="geometricPrecision" transform="matrix(1,0,0,1,31,66)" stroke="rgb(204,153,255)">
      <rect x="-25" y="-25" clip-path="url(#clipPath2)" width="20" rx="4" ry="4" height="20" stroke="none"/>
    </g>
    <g text-rendering="geometricPrecision" stroke-miterlimit="1.45" shape-rendering="geometricPrecision" transform="matrix(1,0,0,1,31,66)" stroke-linecap="butt">
      <rect x="-25" y="-25" clip-path="url(#clipPath2)" fill="none" width="20" rx="4" ry="4" height="20"/>
    </g>
    <g fill="rgb(204,153,255)" text-rendering="geometricPrecision" shape-rendering="geometricPrecision" transform="matrix(1,0,0,1,31,66)" stroke="rgb(204,153,255)">
      <rect x="35" y="-25" clip-path="url(#clipPath2)" width="20" rx="4" ry="4" height="20" stroke="none"/>
    </g>
    <g text-rendering="geometricPrecision" stroke-miterlimit="1.45" shape-rendering="geometricPrecision" transform="matrix(1,0,0,1,31,66)" stroke-linecap="butt">
      <rect x="35" y="-25" clip-path="url(#clipPath2)" fill="none" width="20" rx="4" ry="4" height="20"/>
    </g>
    <g fill="rgb(204,153,255)" text-rendering="geometricPrecision" shape-rendering="geometricPrecision" transform="matrix(1,0,0,1,31,66)" stroke="rgb(204,153,255)">
      <rect x="5" y="10" clip-path="url(#clipPath2)" width="20" rx="4" ry="4" height="20" stroke="none"/>
    </g>
    <g text-rendering="geometricPrecision" stroke-miterlimit="1.45" shape-rendering="geometricPrecision" transform="matrix(1,0,0,1,31,66)" stroke-linecap="butt">
      <rect x="5" y="10" clip-path="url(#clipPath2)" fill="none" width="20" rx="4" ry="4" height="20"/>
    </g>
    <g fill="rgb(204,153,255)" text-rendering="geometricPrecision" shape-rendering="geometricPrecision" transform="matrix(1,0,0,1,31,66)" stroke="rgb(204,153,255)">
      <rect x="35" y="40" clip-path="url(#clipPath2)" width="20" rx="4" ry="4" height="20" stroke="none"/>
    </g>
    <g text-rendering="geometricPrecision" stroke-miterlimit="1.45" shape-rendering="geometricPrecision" transform="matrix(1,0,0,1,31,66)" stroke-linecap="butt">
      <rect x="35" y="40" clip-path="url(#clipPath2)" fill="none" width="20" rx="4" ry="4" height="20"/>
    </g>
    <g fill="rgb(204,153,255)" text-rendering="geometricPrecision" shape-rendering="geometricPrecision" transform="matrix(1,0,0,1,31,66)" stroke="rgb(204,153,255)">
      <rect x="35" y="10" clip-path="url(#clipPath2)" width="20" rx="4" ry="4" height="20" stroke="none"/>
    </g>
    <g text-rendering="geometricPrecision" stroke-miterlimit="1.45" shape-rendering="geometricPrecision" transform="matrix(1,0,0,1,31,66)" stroke-linecap="butt">
      <rect x="35" y="10" clip-path="url(#clipPath2)" fill="none" width="20" rx="4" ry="4" height="20"/>
    </g>
    <g fill="rgb(255,204,0)" text-rendering="geometricPrecision" shape-rendering="geometricPrecision" transform="matrix(1,0,0,1,31,66)" stroke="rgb(255,204,0)">
      <path d="M15 0 L19.5 -7.2058 L27.9904 -7.5 L24 -15 L27.9904 -22.5 L19.5 -22.7942 L15 -30 L10.5 -22.7942 L2.0096 -22.5 L6 -15 L2.0096 -7.5 L10.5 -7.2058 Z" fill-rule="evenodd" clip-path="url(#clipPath2)" stroke="none"/>
    </g>
    <g text-rendering="geometricPrecision" stroke-miterlimit="1.45" shape-rendering="geometricPrecision" transform="matrix(1,0,0,1,31,66)" stroke-linecap="butt">
      <path fill="none" d="M15 0 L19.5 -7.2058 L27.9904 -7.5 L24 -15 L27.9904 -22.5 L19.5 -22.7942 L15 -30 L10.5 -22.7942 L2.0096 -22.5 L6 -15 L2.0096 -7.5 L10.5 -7.2058 Z" fill-rule="evenodd" clip-path="url(#clipPath2)"/>
    </g>
    <g fill="rgb(255,204,0)" text-rendering="geometricPrecision" shape-rendering="geometricPrecision" transform="matrix(1,0,0,1,31,66)" stroke="rgb(255,204,0)">
      <path d="M15 65 L19.5 57.7942 L27.9904 57.5 L24 50 L27.9904 42.5 L19.5 42.2058 L15 35 L10.5 42.2058 L2.0096 42.5 L6 50 L2.0096 57.5 L10.5 57.7942 Z" fill-rule="evenodd" clip-path="url(#clipPath2)" stroke="none"/>
    </g>
    <g text-rendering="geometricPrecision" stroke-miterlimit="1.45" shape-rendering="geometricPrecision" transform="matrix(1,0,0,1,31,66)" stroke-linecap="butt">
      <path fill="none" d="M15 65 L19.5 57.7942 L27.9904 57.5 L24 50 L27.9904 42.5 L19.5 42.2058 L15 35 L10.5 42.2058 L2.0096 42.5 L6 50 L2.0096 57.5 L10.5 57.7942 Z" fill-rule="evenodd" clip-path="url(#clipPath2)"/>
    </g>
  </g>
</svg>
