<svg xmlns="http://www.w3.org/2000/svg" xmlns:xlink="http://www.w3.org/1999/xlink" fill-opacity="1" color-interpolation="auto" stroke="black" stroke-linecap="square" width="92" stroke-miterlimit="10" stroke-opacity="1" fill="black" stroke-dasharray="none" stroke-width="1" height="162" stroke-linejoin="miter" stroke-dashoffset="0"><style><![CDATA[.B{clip-path:url(#A)}.C{shape-rendering:geometricPrecision}.D{stroke:none}.E{fill:none}.F{stroke-miterlimit:1.45}.G{fill:#c9f}.H{fill-rule:evenodd}]]></style><defs><clipPath id="A"><path d="M-31-66h92V96h-92V-66z"/></clipPath><path id="B" d="M15 0l4.5-7.206 8.49-.294L24-15l3.99-7.5-8.49-.294L15-30l-4.5 7.206-8.49.294L6-15 2.01-7.5l8.49.294z"/><path id="C" d="M15 65l4.5-7.206 8.49-.294L24 50l3.99-7.5-8.49-.294L15 35l-4.5 7.206-8.49.294L6 50l-3.99 7.5 8.49.294z"/></defs><g text-rendering="geometricPrecision" transform="translate(31 66)" class="C"><rect x="-30" y="-65" width="90" rx="4" height="160" fill="#666" class="B D"/><rect x="-30" y="-65" width="90" rx="4" height="160" class="B E F"/><rect x="-25" y="-60" width="80" rx="4" height="150" fill="#ccc" class="B D"/><rect x="-25" y="-60" width="80" rx="4" height="150" class="B E F"/><rect x="35" y="-60" width="20" rx="4" height="20" class="B D G"/><rect x="35" y="-60" width="20" rx="4" height="20" class="B E F"/><rect x="-25" y="70" width="20" rx="4" height="20" class="B D G"/><rect x="-25" y="70" width="20" rx="4" height="20" class="B E F"/><rect x="-25" y="-60" width="20" rx="4" height="20" class="B D G"/><rect x="-25" y="-60" width="20" rx="4" height="20" class="B E F"/><rect x="35" y="70" width="20" rx="4" height="20" class="B D G"/><rect x="35" y="70" width="20" rx="4" height="20" class="B E F"/><rect x="5" y="70" width="20" rx="4" height="20" class="B D G"/><rect x="5" y="70" width="20" rx="4" height="20" class="B E F"/><rect x="5" y="-60" width="20" rx="4" height="20" class="B D G"/><rect x="5" y="-60" width="20" rx="4" height="20" class="B E F"/><rect x="-25" y="40" width="20" rx="4" height="20" class="B D G"/><rect x="-25" y="40" width="20" rx="4" height="20" class="B E F"/><rect x="-25" y="10" width="20" rx="4" height="20" class="B D G"/><rect x="-25" y="10" width="20" rx="4" height="20" class="B E F"/><rect x="-25" y="-25" width="20" rx="4" height="20" class="B D G"/><rect x="-25" y="-25" width="20" rx="4" height="20" class="B E F"/><rect x="35" y="-25" width="20" rx="4" height="20" class="B D G"/><rect x="35" y="-25" width="20" rx="4" height="20" class="B E F"/><rect x="5" y="10" width="20" rx="4" height="20" class="B D G"/><rect x="5" y="10" width="20" rx="4" height="20" class="B E F"/><rect x="35" y="40" width="20" rx="4" height="20" class="B D G"/><rect x="35" y="40" width="20" rx="4" height="20" class="B E F"/><rect x="35" y="10" width="20" rx="4" height="20" class="B D G"/><rect x="35" y="10" width="20" rx="4" height="20" class="B E F"/><use xlink:href="#B" fill="#fc0" class="B D H"/><use xlink:href="#B" class="B E F"/><use xlink:href="#C" fill="#fc0" class="B D H"/><use xlink:href="#C" class="B E F"/></g></svg>