<svg xmlns="http://www.w3.org/2000/svg" viewBox="0 0 500 500"><g transform="translate(0 -552.36)"><rect x="0" y="552.36" width="500" height="500" fill="#777"/><path fill="#333" d="M155 736 L 340 736 L 373 878 L 200 1200 L -200 1000"/><path d="M181.35 717.98c-42.658 0-94.645 168.75-35.773 168.75 22.059 0 43.066-35.831 54.203-48.061h100.44c11.137 12.23 32.144 48.061 54.203 48.061 58.871 0 6.885-168.75-35.773-168.75h-31.439c-6.06 0-14.204 10.842-19.512 10.842h-35.398c-5.307 0-13.451-10.842-19.512-10.842H181.35zm132.17 25.631c3.703 0 6.705 3.002 6.705 6.705s-3.002 6.705-6.705 6.705-6.705-3.002-6.705-6.705 3.002-6.705 6.705-6.705zm-135.45 2.973h9.711v14.566h14.564v9.709h-14.564v14.562h-9.711v-14.562h-14.564v-9.709h14.564v-14.566zm119.09 13.385c3.703 0 6.705 3.002 6.705 6.705 0 1.779-.706 3.485-1.963 4.742s-2.963 1.965-4.742 1.965-3.485-.706-4.743-1.964-1.964-2.964-1.964-4.743.707-3.484 1.965-4.742 2.964-1.964 4.742-1.963zm32.986 0c3.703 0 6.705 3.002 6.705 6.705 0 1.779-.706 3.485-1.963 4.742s-2.963 1.965-4.742 1.965-3.485-.706-4.743-1.964-1.964-2.964-1.964-4.743.707-3.484 1.965-4.742 2.964-1.964 4.742-1.963zm-16.359 16.629c1.779 0 3.485.706 4.742 1.963s1.965 2.963 1.965 4.742-.707 3.484-1.965 4.742-2.964 1.964-4.742 1.963c-3.703 0-6.705-3.002-6.705-6.705s3.002-6.705 6.705-6.705zm-92.055 26.662a13.37 13.37 0 0 1 13.371 13.371 13.37 13.37 0 0 1-13.371 13.371 13.37 13.37 0 0 1-13.369-13.371 13.37 13.37 0 0 1 13.369-13.371zm56.531 0a13.37 13.37 0 0 1 13.369 13.371 13.37 13.37 0 0 1-13.369 13.371 13.37 13.37 0 0 1-13.371-13.371 13.37 13.37 0 0 1 13.371-13.371z" fill="#fff"/></g></svg>